<?xml version="1.0" encoding="UTF-8" standalone="no"?>
<!DOCTYPE svg PUBLIC "-//W3C//DTD SVG 1.1//EN" "http://www.w3.org/Graphics/SVG/1.1/DTD/svg11.dtd">
<svg width="100%" height="100%" viewBox="0 0 150 150" version="1.1" xmlns="http://www.w3.org/2000/svg" xmlns:xlink="http://www.w3.org/1999/xlink" xml:space="preserve" xmlns:serif="http://www.serif.com/" style="fill-rule:evenodd;clip-rule:evenodd;stroke-linejoin:round;stroke-miterlimit:2;">
    <g transform="matrix(3.09217,0,0,3.09217,-222.314,-79.3873)">
        <path d="M109.053,35.88L96.565,48.904L97.443,31.831C97.443,30.205 98.094,28.896 99.394,27.904C100.695,26.912 102.191,26.416 103.882,26.416C105.606,26.416 107.094,27.042 108.346,28.294C109.598,29.546 110.224,31.05 110.224,32.806C110.224,34.01 109.833,35.034 109.053,35.88ZM95.736,48.904L83.248,35.88C82.468,35.034 82.077,34.01 82.077,32.806C82.077,31.083 82.695,29.587 83.931,28.319C85.167,27.05 86.663,26.416 88.419,26.416C90.11,26.416 91.606,26.912 92.907,27.904C94.207,28.896 94.858,30.205 94.858,31.831L95.736,48.904ZM118.711,38.904C119.004,39.359 119.232,39.88 119.394,40.465C119.557,41.05 119.638,41.636 119.638,42.221C119.638,43.912 119.183,45.376 118.272,46.611C117.264,47.977 115.931,48.66 114.272,48.66L97.15,49.489L110.224,37.05C111.004,36.302 112.012,35.928 113.248,35.928C114.289,35.928 115.305,36.197 116.297,36.733C117.289,37.27 118.094,37.993 118.711,38.904ZM95.15,49.489L78.029,48.66C76.403,48.66 75.102,48.002 74.126,46.685C73.15,45.367 72.663,43.88 72.663,42.221C72.663,40.498 73.281,39.018 74.516,37.782C75.752,36.546 77.264,35.928 79.053,35.928C80.289,35.928 81.297,36.302 82.077,37.05L95.15,49.489ZM118.711,60.953C118.094,61.863 117.289,62.587 116.297,63.124C115.305,63.66 114.272,63.928 113.199,63.928C112.614,63.928 112.077,63.847 111.59,63.685C111.102,63.522 110.646,63.229 110.224,62.806L97.15,50.367L114.272,51.148C115.898,51.148 117.199,51.806 118.175,53.124C119.15,54.441 119.638,55.928 119.638,57.587C119.638,58.888 119.329,60.01 118.711,60.953ZM95.15,50.367L82.077,62.806C81.687,63.164 81.232,63.441 80.711,63.636C80.191,63.831 79.655,63.928 79.102,63.928C77.346,63.928 75.833,63.311 74.565,62.075C73.297,60.839 72.663,59.343 72.663,57.587C72.663,55.896 73.142,54.4 74.102,53.099C75.061,51.798 76.37,51.148 78.029,51.148L95.15,50.367ZM109.053,63.977C109.833,64.823 110.224,65.847 110.224,67.05C110.224,68.774 109.606,70.27 108.37,71.538C107.134,72.806 105.638,73.441 103.882,73.441C102.191,73.441 100.728,72.969 99.492,72.026C98.126,70.985 97.443,69.636 97.443,67.977L96.565,50.904L109.053,63.977ZM95.736,50.904L94.858,67.977C94.858,69.603 94.199,70.92 92.882,71.928C91.565,72.937 90.077,73.441 88.419,73.441C86.695,73.441 85.207,72.815 83.955,71.563C82.703,70.311 82.077,68.806 82.077,67.05C82.077,65.847 82.468,64.823 83.248,63.977L95.736,50.904ZM108.126,34.855C108.614,34.335 108.858,33.652 108.858,32.806C108.858,31.538 108.378,30.408 107.419,29.416C106.459,28.424 105.362,27.928 104.126,27.928C102.793,27.928 101.565,28.376 100.443,29.27C99.321,30.164 98.76,31.18 98.76,32.319L97.833,46.075L108.126,34.855ZM94.468,46.075L93.541,32.319C93.541,31.18 92.98,30.164 91.858,29.27C90.736,28.376 89.508,27.928 88.175,27.928C86.939,27.928 85.842,28.424 84.882,29.416C83.923,30.408 83.443,31.538 83.443,32.806C83.443,33.652 83.687,34.335 84.175,34.855L94.468,46.075ZM117.443,39.636C116.988,38.953 116.378,38.392 115.614,37.953C114.85,37.514 114.077,37.294 113.297,37.294C112.451,37.294 111.768,37.538 111.248,38.026L100.029,48.221L113.736,47.343C114.907,47.343 115.939,46.79 116.833,45.685C117.728,44.579 118.175,43.359 118.175,42.026C118.175,41.18 117.931,40.384 117.443,39.636ZM92.272,48.221L81.053,38.026C80.533,37.538 79.85,37.294 79.004,37.294C77.768,37.294 76.646,37.766 75.638,38.709C74.63,39.652 74.126,40.758 74.126,42.026C74.126,43.327 74.573,44.538 75.468,45.66C76.362,46.782 77.394,47.343 78.565,47.343L92.272,48.221ZM117.443,60.221C117.931,59.473 118.175,58.676 118.175,57.831C118.175,56.53 117.728,55.319 116.833,54.197C115.939,53.075 114.907,52.514 113.736,52.514L100.029,51.636L111.248,61.831C111.833,62.319 112.516,62.563 113.297,62.563C114.077,62.563 114.842,62.351 115.59,61.928C116.337,61.506 116.955,60.937 117.443,60.221ZM92.272,51.636L78.565,52.514C77.394,52.514 76.362,53.067 75.468,54.172C74.573,55.278 74.126,56.498 74.126,57.831C74.126,59.099 74.614,60.205 75.59,61.148C76.565,62.091 77.703,62.563 79.004,62.563C79.785,62.563 80.468,62.319 81.053,61.831L92.272,51.636ZM108.126,65.002L97.833,53.782L98.76,67.489C98.76,68.66 99.321,69.693 100.443,70.587C101.565,71.481 102.793,71.928 104.126,71.928C105.362,71.928 106.459,71.432 107.419,70.441C108.378,69.449 108.858,68.319 108.858,67.05C108.858,66.205 108.614,65.522 108.126,65.002ZM94.468,53.782L84.175,65.002C83.687,65.522 83.443,66.205 83.443,67.05C83.443,68.319 83.923,69.449 84.882,70.441C85.842,71.432 86.939,71.928 88.175,71.928C89.508,71.928 90.736,71.481 91.858,70.587C92.98,69.693 93.541,68.66 93.541,67.489L94.468,53.782Z" style="fill:rgb(22,124,76);fill-rule:nonzero;stroke:rgb(22,124,77);stroke-width:0.54px;"/>
    </g>
</svg>
