<?xml version="1.0" encoding="UTF-8" standalone="no"?>
<!DOCTYPE svg PUBLIC "-//W3C//DTD SVG 1.1//EN" "http://www.w3.org/Graphics/SVG/1.1/DTD/svg11.dtd">
<svg width="100%" height="100%" viewBox="0 0 1890 1300" version="1.1" xmlns="http://www.w3.org/2000/svg" xmlns:xlink="http://www.w3.org/1999/xlink" xml:space="preserve" xmlns:serif="http://www.serif.com/" style="fill-rule:evenodd;clip-rule:evenodd;stroke-linejoin:round;stroke-miterlimit:2;">
    <g transform="matrix(1,0,0,1,-812.471,-379.25)">
        <path d="M1430.95,1009.93L1430.95,384.726L818.953,384.726L818.953,1009.93L1430.95,1009.93ZM1118.95,905.526C1106.15,905.526 1088.55,906.326 1066.15,907.926L1066.15,904.326C1074.95,899.926 1082.05,893.826 1087.45,886.026C1092.85,878.226 1095.75,869.126 1096.15,858.726C1096.55,824.326 1096.75,772.726 1096.75,703.926C1096.75,677.926 1096.45,651.226 1095.85,623.826C1095.25,596.426 1094.35,570.126 1093.15,544.926C1092.35,532.526 1089.95,521.726 1085.95,512.526C1081.95,503.326 1074.35,494.926 1063.15,487.326L1063.15,483.726C1081.95,485.726 1100.15,486.726 1117.75,486.726C1126.55,486.726 1140.15,486.126 1158.55,484.926C1161.35,484.526 1165.75,484.126 1171.75,483.726L1171.75,487.326C1162.15,492.126 1155.35,499.926 1151.35,510.726C1147.35,521.526 1144.95,533.726 1144.15,547.326C1142.95,560.926 1142.25,577.126 1142.05,595.926C1141.85,614.726 1141.75,650.326 1141.75,702.726C1141.75,745.126 1143.15,796.126 1145.95,855.726C1147.15,878.926 1157.35,895.126 1176.55,904.326L1176.55,907.926L1174.75,907.926C1149.15,906.326 1130.55,905.526 1118.95,905.526ZM1387.15,928.326L1387.15,934.926L1307.95,934.926L1342.15,928.326L1387.15,928.326ZM1387.15,943.326L1387.15,951.126L1256.35,951.126L1290.55,943.326L1387.15,943.326ZM1387.15,958.926L1387.15,967.926L1164.55,967.926L1221.55,958.926L1387.15,958.926ZM853.153,979.326L1388.95,979.326L1409.35,999.726L831.553,999.726L853.153,979.326ZM1399.15,969.726L1399.15,414.726L1420.15,395.526L1420.15,990.726L1399.15,969.726ZM1135.75,547.326C1135.75,528.526 1138.95,511.526 1145.35,496.326C1138.55,500.726 1132.65,507.726 1127.65,517.326C1122.65,526.926 1120.15,536.926 1120.15,547.326L1120.15,852.126C1120.15,865.726 1121.95,874.926 1125.55,879.726C1129.15,884.526 1135.95,888.926 1145.95,892.926C1147.55,893.726 1148.35,894.126 1148.35,894.126C1142.35,888.926 1138.75,883.726 1137.55,878.526C1136.35,873.326 1135.75,864.726 1135.75,852.726L1135.75,547.326Z" style="fill:white;fill-rule:nonzero;"/>
        <path d="M2063.35,1011.13L2063.35,385.926L1451.35,385.926L1451.35,1011.13L2063.35,1011.13ZM1751.95,911.526C1739.55,911.526 1728.15,910.426 1717.75,908.226C1707.35,906.026 1694.35,902.526 1678.75,897.726C1673.55,896.126 1670.55,895.326 1669.75,895.326C1663.75,893.726 1659.65,890.326 1657.45,885.126C1655.25,879.926 1654.15,872.726 1654.15,863.526C1654.15,863.526 1653.95,862.526 1653.55,860.526C1652.75,854.126 1652.05,847.926 1651.45,841.926C1650.85,835.926 1650.55,829.926 1650.55,823.926C1650.55,819.926 1651.25,815.926 1652.65,811.926C1654.05,807.926 1656.15,805.926 1658.95,805.926C1659.75,805.926 1660.95,808.726 1662.55,814.326C1664.95,821.526 1667.45,828.126 1670.05,834.126C1672.65,840.126 1676.35,845.926 1681.15,851.526C1689.55,861.526 1701.95,870.126 1718.35,877.326C1734.75,884.526 1748.95,888.126 1760.95,888.126C1780.55,888.126 1798.85,881.426 1815.85,868.026C1832.85,854.626 1841.35,836.526 1841.35,813.726C1841.35,802.126 1839.05,791.326 1834.45,781.326C1829.85,771.326 1823.35,761.926 1814.95,753.126C1804.15,741.526 1784.35,725.926 1755.55,706.326C1740.75,696.326 1728.65,687.626 1719.25,680.226C1709.85,672.826 1700.95,664.626 1692.55,655.626C1684.15,646.626 1677.45,636.626 1672.45,625.626C1667.45,614.626 1664.95,602.726 1664.95,589.926C1664.95,576.726 1667.15,563.826 1671.55,551.226C1675.95,538.626 1682.75,527.126 1691.95,516.726C1701.15,506.326 1712.55,498.026 1726.15,491.826C1739.75,485.626 1755.75,482.526 1774.15,482.526C1781.75,482.526 1792.75,483.926 1807.15,486.726C1821.55,489.926 1832.55,491.526 1840.15,491.526C1842.95,491.526 1846.75,490.726 1851.55,489.126C1856.75,487.126 1861.15,486.126 1864.75,486.126C1866.75,486.126 1867.75,487.526 1867.75,490.326C1867.75,499.126 1868.55,511.526 1870.15,527.526C1871.35,543.126 1871.95,554.726 1871.95,562.326C1871.95,563.926 1871.65,565.826 1871.05,568.026C1870.45,570.226 1869.55,571.326 1868.35,571.326C1867.55,570.126 1866.35,568.026 1864.75,565.026C1863.15,562.026 1860.85,558.126 1857.85,553.326C1854.85,548.526 1851.55,543.926 1847.95,539.526C1844.35,535.126 1841.15,531.726 1838.35,529.326C1829.15,521.326 1818.05,515.326 1805.05,511.326C1792.05,507.326 1779.75,505.326 1768.15,505.326C1752.15,505.326 1737.55,511.226 1724.35,523.026C1711.15,534.826 1704.55,548.126 1704.55,562.926C1704.55,581.326 1711.25,597.726 1724.65,612.126C1738.05,626.526 1758.55,643.526 1786.15,663.126C1800.95,673.526 1813.65,682.926 1824.25,691.326C1834.85,699.726 1844.65,708.926 1853.65,718.926C1862.65,728.926 1869.85,739.926 1875.25,751.926C1880.65,763.926 1883.55,776.926 1883.95,790.926C1883.95,806.526 1881.25,821.526 1875.85,835.926C1870.45,850.326 1862.15,863.226 1850.95,874.626C1839.75,886.026 1825.85,895.026 1809.25,901.626C1792.65,908.226 1773.55,911.526 1751.95,911.526ZM2019.55,929.526L2019.55,935.526L1940.35,935.526L1974.55,929.526L2019.55,929.526ZM2019.55,944.526L2019.55,951.726L1888.75,951.726L1922.95,944.526L2019.55,944.526ZM2019.55,960.126L2019.55,969.126L1796.95,969.126L1853.95,960.126L2019.55,960.126ZM1485.55,979.926L2021.35,979.926L2041.75,1000.93L1463.95,1000.93L1485.55,979.926ZM2031.55,970.926L2031.55,415.326L2052.55,396.726L2052.55,991.926L2031.55,970.926ZM1723.75,516.726C1722.15,517.126 1719.45,518.826 1715.65,521.826C1711.85,524.826 1707.85,528.726 1703.65,533.526C1699.45,538.326 1695.95,543.726 1693.15,549.726C1690.35,555.726 1688.95,562.126 1688.95,568.926C1688.95,583.726 1694.55,598.126 1705.75,612.126C1716.95,626.126 1732.95,641.126 1753.75,657.126C1757.75,660.326 1765.15,665.926 1775.95,673.926C1793.55,687.126 1808.15,698.426 1819.75,707.826C1831.35,717.226 1839.35,724.926 1843.75,730.926C1857.75,750.926 1864.75,770.526 1864.75,789.726C1864.75,816.126 1859.45,838.326 1848.85,856.326C1838.25,874.326 1820.75,888.126 1796.35,897.726C1820.75,892.126 1840.05,879.626 1854.25,860.226C1868.45,840.826 1875.55,817.926 1875.55,791.526C1875.15,765.926 1866.95,744.126 1850.95,726.126C1848.15,722.526 1843.95,718.126 1838.35,712.926C1832.75,707.726 1826.35,702.326 1819.15,696.726C1810.35,689.526 1796.15,678.326 1776.55,663.126C1765.75,654.726 1759.95,650.326 1759.15,649.926C1740.35,635.126 1725.45,620.426 1714.45,605.826C1703.45,591.226 1697.95,576.526 1697.95,561.726C1697.95,549.726 1700.55,540.426 1705.75,533.826C1710.95,527.226 1716.35,521.926 1721.95,517.926C1723.15,517.126 1723.75,516.726 1723.75,516.726ZM1864.75,551.526C1864.35,547.926 1862.75,542.526 1859.95,535.326C1858.35,530.126 1857.15,526.126 1856.35,523.326C1856.35,522.526 1856.15,521.526 1855.75,520.326L1855.75,518.526C1855.75,516.526 1855.95,514.126 1856.35,511.326C1857.55,505.326 1858.15,499.126 1858.15,492.726L1846.15,522.126L1864.75,551.526Z" style="fill:white;fill-rule:nonzero;"/>
        <path d="M2695.75,1011.73L2695.75,386.526L2083.75,386.526L2083.75,1011.73L2695.75,1011.73ZM2395.15,482.526C2428.35,482.526 2458.35,487.926 2485.15,498.726C2511.95,509.526 2534.55,524.726 2552.95,544.326C2571.35,563.926 2585.35,586.826 2594.95,613.026C2604.55,639.226 2609.35,667.126 2609.35,696.726C2609.35,727.926 2603.85,756.826 2592.85,783.426C2581.85,810.026 2566.55,833.026 2546.95,852.426C2527.35,871.826 2504.45,886.826 2478.25,897.426C2452.05,908.026 2424.35,913.326 2395.15,913.326C2365.95,913.326 2338.35,907.826 2312.35,896.826C2286.35,885.826 2263.45,870.326 2243.65,850.326C2223.85,830.326 2208.45,807.226 2197.45,781.026C2186.45,754.826 2180.95,727.126 2180.95,697.926C2180.95,668.726 2186.45,641.026 2197.45,614.826C2208.45,588.626 2223.75,565.526 2243.35,545.526C2262.95,525.526 2285.85,510.026 2312.05,499.026C2338.25,488.026 2365.95,482.526 2395.15,482.526ZM2651.95,930.126L2651.95,936.126L2572.75,936.126L2606.95,930.126L2651.95,930.126ZM2651.95,945.126L2651.95,952.326L2521.15,952.326L2555.35,945.126L2651.95,945.126ZM2651.95,960.726L2651.95,969.126L2429.35,969.126L2486.35,960.726L2651.95,960.726ZM2117.95,980.526L2653.75,980.526L2674.15,1001.53L2096.35,1001.53L2117.95,980.526ZM2663.95,971.526L2663.95,415.926L2684.95,397.326L2684.95,992.526L2663.95,971.526ZM2395.15,507.726C2371.95,507.726 2350.45,512.026 2330.65,520.626C2310.85,529.226 2293.75,541.326 2279.35,556.926C2264.95,572.526 2253.85,591.326 2246.05,613.326C2238.25,635.326 2234.35,659.126 2234.35,684.726C2234.35,710.726 2238.25,735.926 2246.05,760.326C2253.85,784.726 2265.05,806.526 2279.65,825.726C2294.25,844.926 2311.45,860.026 2331.25,871.026C2351.05,882.026 2372.35,887.526 2395.15,887.526C2418.35,887.526 2440.05,883.526 2460.25,875.526C2480.45,867.526 2498.05,855.926 2513.05,840.726C2528.05,825.526 2539.65,807.326 2547.85,786.126C2556.05,764.926 2560.15,741.526 2560.15,715.926C2560.15,683.926 2556.05,655.026 2547.85,629.226C2539.65,603.426 2528.05,581.426 2513.05,563.226C2498.05,545.026 2480.45,531.226 2460.25,521.826C2440.05,512.426 2418.35,507.726 2395.15,507.726ZM2346.55,887.526C2330.15,879.126 2314.65,868.826 2300.05,856.626C2285.45,844.426 2272.65,829.826 2261.65,812.826C2250.65,795.826 2241.95,776.426 2235.55,754.626C2229.15,732.826 2225.95,708.726 2225.95,682.326C2225.95,662.726 2228.25,644.026 2232.85,626.226C2237.45,608.426 2244.95,591.626 2255.35,575.826C2265.75,560.026 2279.65,545.826 2297.05,533.226C2314.45,520.626 2335.75,509.926 2360.95,501.126C2339.35,503.926 2318.95,511.126 2299.75,522.726C2280.55,534.326 2263.85,548.726 2249.65,565.926C2235.45,583.126 2224.45,601.726 2216.65,621.726C2208.85,641.726 2204.95,661.526 2204.95,681.126C2204.95,711.926 2208.55,739.126 2215.75,762.726C2222.95,786.326 2232.95,806.226 2245.75,822.426C2258.55,838.626 2273.35,851.926 2290.15,862.326C2306.95,872.726 2325.75,881.126 2346.55,887.526ZM2468.35,894.726L2468.35,895.326C2485.55,888.526 2501.85,879.726 2517.25,868.926C2532.65,858.126 2546.75,844.526 2559.55,828.126C2572.35,811.726 2582.65,791.726 2590.45,768.126C2598.25,744.526 2602.15,717.526 2602.15,687.126C2602.15,667.526 2598.15,647.026 2590.15,625.626C2582.15,604.226 2570.95,584.026 2556.55,565.026C2542.15,546.026 2525.45,530.126 2506.45,517.326C2487.45,504.526 2467.15,496.526 2445.55,493.326C2470.35,501.726 2491.45,513.026 2508.85,527.226C2526.25,541.426 2540.25,557.326 2550.85,574.926C2561.45,592.526 2569.15,610.926 2573.95,630.126C2578.75,649.326 2581.15,668.726 2581.15,688.326C2581.15,740.326 2570.85,783.526 2550.25,817.926C2529.65,852.326 2502.35,877.926 2468.35,894.726Z" style="fill:white;fill-rule:nonzero;"/>
    </g>
    <g transform="matrix(1,0,0,1,-1263.74,-217.69)">
        <path d="M1882.23,1511.43L1882.23,886.227L1270.23,886.227L1270.23,1511.43L1882.23,1511.43ZM1499.42,989.427C1522.23,989.427 1553.62,989.027 1593.62,988.227C1602.83,988.227 1612.83,989.927 1623.62,993.327C1634.42,996.727 1644.83,1002.13 1654.83,1009.53C1664.83,1016.93 1673.03,1026.63 1679.42,1038.63C1685.83,1050.63 1689.03,1064.83 1689.03,1081.23C1688.62,1102.03 1683.03,1120.53 1672.23,1136.73C1661.42,1152.93 1647.83,1166.23 1631.42,1176.63C1645.83,1180.23 1658.92,1184.43 1670.73,1189.23C1682.53,1194.03 1692.42,1199.63 1700.42,1206.03C1714.03,1216.43 1724.23,1229.03 1731.03,1243.83C1737.83,1258.63 1741.23,1274.63 1741.23,1291.83C1741.23,1309.03 1736.33,1327.03 1726.53,1345.83C1716.73,1364.63 1703.23,1379.43 1686.03,1390.23C1675.23,1397.03 1662.53,1401.53 1647.92,1403.73C1633.33,1405.93 1616.42,1407.03 1597.23,1407.03C1587.62,1407.03 1568.23,1406.63 1539.03,1405.83C1518.62,1405.43 1505.62,1405.23 1500.03,1405.23C1490.83,1405.23 1480.92,1405.43 1470.33,1405.83C1459.73,1406.23 1450.03,1406.83 1441.23,1407.63L1441.23,1403.43C1449.23,1399.03 1456.92,1391.03 1464.33,1379.43C1471.73,1367.83 1475.62,1356.83 1476.03,1346.43C1477.23,1323.63 1477.92,1302.23 1478.12,1282.23C1478.33,1262.23 1478.42,1236.03 1478.42,1203.63C1478.42,1180.43 1478.03,1155.33 1477.23,1128.33C1476.42,1101.33 1475.42,1073.43 1474.23,1044.63C1473.42,1032.63 1470.92,1022.33 1466.73,1013.73C1462.53,1005.13 1454.42,997.627 1442.42,991.227L1442.42,986.427C1450.42,987.227 1459.62,987.927 1470.03,988.527C1480.42,989.127 1490.23,989.427 1499.42,989.427ZM1838.42,1429.83L1838.42,1435.83L1759.23,1435.83L1793.42,1429.83L1838.42,1429.83ZM1838.42,1444.83L1838.42,1452.03L1707.62,1452.03L1741.83,1444.83L1838.42,1444.83ZM1838.42,1460.43L1838.42,1468.83L1615.83,1468.83L1672.83,1460.43L1838.42,1460.43ZM1304.42,1480.23L1840.23,1480.23L1860.62,1501.23L1282.83,1501.23L1304.42,1480.23ZM1850.42,1471.23L1850.42,915.627L1871.42,897.027L1871.42,1492.23L1850.42,1471.23ZM1524.03,1339.23C1524.03,1357.23 1529.12,1369.33 1539.33,1375.53C1549.53,1381.73 1569.83,1384.83 1600.23,1384.83C1614.23,1384.83 1627.12,1383.03 1638.92,1379.43C1650.73,1375.83 1660.42,1370.63 1668.03,1363.83C1676.83,1356.63 1682.92,1347.73 1686.33,1337.13C1689.73,1326.53 1691.42,1316.03 1691.42,1305.63C1691.42,1291.23 1689.23,1277.63 1684.83,1264.83C1680.42,1252.03 1673.53,1240.43 1664.12,1230.03C1654.73,1219.63 1642.73,1211.43 1628.12,1205.43C1613.53,1199.43 1596.23,1196.43 1576.23,1196.43C1573.03,1196.43 1568.03,1196.23 1561.23,1195.83C1544.03,1195.43 1531.23,1195.23 1522.83,1195.23C1522.83,1209.23 1523.03,1229.03 1523.42,1254.63C1523.83,1291.83 1524.03,1320.03 1524.03,1339.23ZM1525.23,1047.03C1524.42,1056.23 1524.03,1068.83 1524.03,1084.83C1524.03,1093.63 1524.23,1106.83 1524.62,1124.43C1525.42,1143.23 1525.83,1158.43 1525.83,1170.03C1531.03,1170.03 1541.03,1170.43 1555.83,1171.23C1566.62,1171.63 1573.83,1171.83 1577.42,1171.83C1585.03,1171.83 1592.53,1170.23 1599.92,1167.03C1607.33,1163.83 1614.23,1158.63 1620.62,1151.43C1627.03,1144.23 1632.12,1134.73 1635.92,1122.93C1639.73,1111.13 1641.62,1097.23 1641.62,1081.23C1641.62,1067.23 1639.42,1055.43 1635.03,1045.83C1630.62,1036.23 1624.83,1028.63 1617.62,1023.03C1610.42,1017.43 1602.42,1013.43 1593.62,1011.03C1584.83,1008.63 1575.62,1007.43 1566.03,1007.43C1561.23,1007.43 1554.03,1007.83 1544.42,1008.63C1538.03,1009.43 1533.23,1009.83 1530.03,1009.83C1527.62,1014.63 1526.23,1023.23 1525.83,1035.63C1525.42,1041.23 1525.23,1045.03 1525.23,1047.03ZM1516.23,1048.23C1516.23,1029.43 1519.42,1012.43 1525.83,997.227C1519.03,1002.03 1513.03,1009.23 1507.83,1018.83C1502.62,1028.43 1500.03,1038.23 1500.03,1048.23L1500.03,1327.83C1500.03,1341.43 1501.83,1350.63 1505.42,1355.43C1509.03,1360.23 1515.83,1364.63 1525.83,1368.63C1527.42,1369.43 1528.23,1369.83 1528.23,1369.83C1522.23,1364.63 1518.62,1359.43 1517.42,1354.23C1516.23,1349.03 1515.62,1340.43 1515.62,1328.43L1516.23,1048.23ZM1634.42,1183.83C1661.62,1193.83 1682.92,1208.03 1698.33,1226.43C1713.73,1244.83 1721.62,1265.43 1722.03,1288.23C1722.03,1315.03 1716.62,1337.43 1705.83,1355.43C1695.03,1373.43 1677.42,1387.03 1653.03,1396.23C1677.42,1390.63 1696.83,1378.03 1711.23,1358.43C1725.62,1338.83 1732.83,1316.03 1732.83,1290.03C1732.42,1264.03 1723.83,1241.33 1707.03,1221.93C1690.23,1202.53 1666.03,1189.83 1634.42,1183.83ZM1598.42,994.827C1626.03,1007.63 1644.83,1019.43 1654.83,1030.23C1664.83,1041.03 1670.03,1057.63 1670.42,1080.03C1670.42,1102.03 1667.23,1119.63 1660.83,1132.83C1654.42,1146.03 1646.23,1157.03 1636.23,1165.83L1637.42,1165.23C1651.83,1154.43 1662.73,1143.33 1670.12,1131.93C1677.53,1120.53 1681.23,1103.63 1681.23,1081.23C1680.83,1056.83 1673.62,1037.63 1659.62,1023.63C1645.62,1009.63 1625.23,1000.03 1598.42,994.827Z" style="fill:white;fill-rule:nonzero;"/>
        <path d="M2514.62,1511.43L2514.62,886.227L1902.62,886.227L1902.62,1511.43L2514.62,1511.43ZM2140.82,1404.03C2134.43,1404.03 2127.43,1404.23 2119.82,1404.63C2112.22,1405.03 2103.03,1405.63 2092.22,1406.43C2088.22,1406.83 2084.22,1407.23 2080.22,1407.63L2080.22,1399.83C2088.62,1395.43 2096.93,1386.83 2105.12,1374.03C2113.32,1361.23 2117.62,1349.63 2118.03,1339.23C2118.43,1305.23 2118.62,1259.63 2118.62,1202.43C2118.62,1176.43 2118.32,1149.73 2117.72,1122.33C2117.12,1094.93 2116.22,1068.63 2115.03,1043.43C2114.22,1032.23 2110.72,1021.93 2104.53,1012.53C2098.32,1003.13 2088.62,995.227 2075.43,988.827L2074.82,982.827C2087.62,984.027 2100.43,985.227 2113.22,986.427C2123.22,987.227 2131.32,987.827 2137.53,988.227C2143.72,988.627 2148.82,988.827 2152.82,988.827C2158.43,988.827 2165.72,988.627 2174.72,988.227C2183.72,987.827 2195.62,987.227 2210.43,986.427C2218.43,986.027 2227.03,985.427 2236.22,984.627C2256.22,983.427 2270.43,982.827 2278.83,982.827C2293.62,982.827 2305.72,983.527 2315.12,984.927C2324.53,986.327 2329.22,989.227 2329.22,993.627C2329.22,1001.63 2329.83,1011.03 2331.03,1021.83C2332.22,1029.43 2332.83,1035.83 2332.83,1041.03C2332.83,1044.23 2331.83,1045.83 2329.83,1045.83C2328.22,1045.83 2326.22,1043.43 2323.83,1038.63C2322.22,1035.83 2320.83,1033.43 2319.62,1031.43C2314.83,1024.23 2305.53,1018.03 2291.72,1012.83C2277.93,1007.63 2258.22,1005.03 2232.62,1005.03C2225.03,1005.03 2212.03,1005.83 2193.62,1007.43C2189.62,1007.83 2181.62,1008.43 2169.62,1009.23C2168.03,1014.83 2166.82,1024.63 2166.03,1038.63L2166.03,1045.23C2164.82,1058.83 2164.12,1074.03 2163.93,1090.83C2163.72,1107.63 2163.62,1136.03 2163.62,1176.03C2171.62,1176.03 2183.43,1176.23 2199.03,1176.63C2213.83,1177.03 2224.83,1177.23 2232.03,1177.23C2233.22,1177.23 2236.62,1177.03 2242.22,1176.63L2251.83,1176.63C2264.22,1176.23 2275.03,1174.03 2284.22,1170.03C2293.43,1166.03 2301.83,1158.43 2309.43,1147.23L2313.03,1147.23C2312.62,1152.03 2312.03,1157.63 2311.22,1164.03C2310.03,1174.83 2309.43,1183.63 2309.43,1190.43L2309.43,1209.33C2309.43,1212.73 2309.83,1219.43 2310.62,1229.43L2307.03,1229.43C2302.22,1219.83 2294.53,1213.03 2283.93,1209.03C2273.33,1205.03 2261.22,1202.43 2247.62,1201.23C2230.03,1200.03 2202.03,1199.43 2163.62,1199.43L2163.62,1200.63C2163.62,1223.03 2163.93,1243.73 2164.53,1262.73C2165.12,1281.73 2166.22,1305.63 2167.82,1334.43L2167.82,1339.23C2168.22,1348.03 2171.32,1355.43 2177.12,1361.43C2182.93,1367.43 2190.33,1372.03 2199.33,1375.23C2208.33,1378.43 2217.83,1380.63 2227.83,1381.83C2237.83,1383.03 2247.83,1383.63 2257.83,1383.63C2273.83,1383.63 2287.43,1382.63 2298.62,1380.63C2309.83,1378.63 2320.03,1373.83 2329.22,1366.23C2338.03,1359.03 2348.03,1348.23 2359.22,1333.83C2366.43,1325.03 2371.03,1320.63 2373.03,1320.63C2375.83,1320.63 2377.22,1322.23 2377.22,1325.43C2377.22,1330.23 2373.22,1339.63 2365.22,1353.63C2357.62,1367.23 2352.83,1377.23 2350.83,1383.63L2350.83,1384.23C2349.22,1390.63 2346.62,1395.53 2343.03,1398.93C2339.43,1402.33 2331.83,1404.03 2320.22,1404.03L2140.82,1404.03ZM2470.83,1429.83L2470.83,1435.83L2391.62,1435.83L2425.83,1429.83L2470.83,1429.83ZM2470.83,1444.83L2470.83,1452.03L2340.03,1452.03L2374.22,1444.83L2470.83,1444.83ZM2470.83,1460.43L2470.83,1468.83L2248.22,1468.83L2305.22,1460.43L2470.83,1460.43ZM1936.83,1480.23L2472.62,1480.23L2493.03,1501.23L1915.23,1501.23L1936.83,1480.23ZM2482.83,1471.23L2482.83,915.627L2503.83,897.027L2503.83,1492.23L2482.83,1471.23ZM2157.03,1046.43C2157.03,1027.63 2160.22,1010.63 2166.62,995.427C2159.82,999.827 2153.93,1006.83 2148.93,1016.43C2143.93,1026.03 2141.43,1036.03 2141.43,1046.43L2140.82,1326.03C2140.82,1339.23 2142.72,1348.13 2146.53,1352.73C2150.32,1357.33 2157.22,1361.83 2167.22,1366.23C2168.43,1366.63 2169.22,1367.03 2169.62,1367.43C2163.62,1362.63 2159.93,1357.63 2158.53,1352.43C2157.12,1347.23 2156.43,1338.43 2156.43,1326.03L2157.03,1046.43ZM2305.22,1217.43C2305.22,1213.43 2304.43,1208.23 2302.83,1201.83C2301.62,1196.23 2301.03,1192.03 2301.03,1189.23C2301.03,1186.03 2301.62,1182.23 2302.83,1177.83C2304.83,1171.43 2306.22,1165.03 2307.03,1158.63L2290.83,1188.03L2305.22,1217.43Z" style="fill:white;fill-rule:nonzero;"/>
        <path d="M3147.03,1509.63L3147.03,884.427L2535.03,884.427L2535.03,1509.63L3147.03,1509.63ZM2768.43,1404.63C2759.22,1404.63 2744.03,1405.43 2722.83,1407.03L2709.62,1408.23L2709.03,1402.83C2717.43,1398.43 2725.43,1389.63 2733.03,1376.43C2740.62,1363.23 2744.62,1351.23 2745.03,1340.43C2745.83,1314.03 2746.22,1292.43 2746.22,1275.63L2746.22,1203.63C2746.22,1180.43 2745.83,1155.23 2745.03,1128.03C2744.22,1100.83 2743.22,1072.83 2742.03,1044.03C2741.22,1031.63 2738.93,1020.83 2735.12,1011.63C2731.33,1002.43 2723.83,994.027 2712.62,986.427L2712.62,982.827C2731.43,984.827 2749.62,985.827 2767.22,985.827C2774.83,985.827 2787.83,985.227 2806.22,984.027C2812.62,983.227 2817.62,982.827 2821.22,982.827L2821.22,986.427C2811.62,991.227 2804.83,998.927 2800.83,1009.53C2796.83,1020.13 2794.22,1032.43 2793.03,1046.43C2792.22,1059.63 2791.72,1075.73 2791.53,1094.73C2791.33,1113.73 2791.22,1149.43 2791.22,1201.83C2791.22,1226.63 2791.53,1249.13 2792.12,1269.33C2792.72,1289.53 2793.83,1313.03 2795.43,1339.83C2796.22,1357.43 2803.33,1369.73 2816.72,1376.73C2830.12,1383.73 2847.03,1387.23 2867.43,1387.23C2881.03,1387.23 2895.43,1385.23 2910.62,1381.23C2925.83,1377.23 2938.22,1371.43 2947.83,1363.83C2953.43,1359.03 2958.43,1353.83 2962.83,1348.23C2967.22,1342.63 2971.62,1336.03 2976.03,1328.43C2981.62,1318.83 2985.62,1314.03 2988.03,1314.03C2989.22,1314.03 2990.12,1314.73 2990.72,1316.13C2991.33,1317.53 2991.62,1319.03 2991.62,1320.63C2991.62,1323.83 2990.62,1327.93 2988.62,1332.93C2986.62,1337.93 2983.83,1344.63 2980.22,1353.03C2973.83,1367.43 2969.83,1377.83 2968.22,1384.23C2966.22,1390.23 2963.62,1395.13 2960.43,1398.93C2957.22,1402.73 2953.03,1404.83 2947.83,1405.23C2945.43,1405.23 2940.83,1405.43 2934.03,1405.83C2911.22,1407.43 2893.83,1408.23 2881.83,1408.23C2870.22,1408.23 2859.83,1408.03 2850.62,1407.63C2841.43,1407.23 2831.03,1406.83 2819.43,1406.43C2798.22,1405.23 2781.22,1404.63 2768.43,1404.63ZM3103.22,1428.03L3103.22,1434.63L3024.03,1434.63L3058.22,1428.03L3103.22,1428.03ZM3103.22,1443.03L3103.22,1450.83L2972.43,1450.83L3006.62,1443.03L3103.22,1443.03ZM3103.22,1458.63L3103.22,1467.63L2880.62,1467.63L2937.62,1458.63L3103.22,1458.63ZM2569.22,1479.03L3105.03,1479.03L3125.43,1499.43L2547.62,1499.43L2569.22,1479.03ZM3115.22,1469.43L3115.22,914.427L3136.22,895.227L3136.22,1490.43L3115.22,1469.43ZM2785.22,1049.43C2785.22,1031.43 2788.62,1014.43 2795.43,998.427C2788.22,1002.83 2782.12,1009.83 2777.12,1019.43C2772.12,1029.03 2769.62,1039.03 2769.62,1049.43L2769.62,1354.23C2769.62,1367.83 2771.53,1376.93 2775.33,1381.53C2779.12,1386.13 2786.03,1390.63 2796.03,1395.03L2798.43,1396.23C2792.43,1391.03 2788.72,1385.83 2787.33,1380.63C2785.93,1375.43 2785.22,1366.83 2785.22,1354.83L2785.22,1049.43Z" style="fill:white;fill-rule:nonzero;"/>
    </g>
</svg>
